<svg width="200" height="209" viewBox="0 0 200 209" fill="none" xmlns="http://www.w3.org/2000/svg">
<path d="M112.172 203.434C110.33 200.216 108.382 195.644 112.172 194.224C114.647 193.297 116.185 195.535 118.876 195.641C122.186 195.772 127.204 194.224 127.204 194.224H132.283C132.283 194.224 136.181 196.412 137.158 198.652C138.481 201.682 138.503 206.108 135.33 206.8L127.204 208.571C127.204 208.571 121.934 209.536 118.876 208.571C115.599 207.536 113.729 206.153 112.172 203.434Z" fill="#91B26E"/>
<path d="M0.735129 110.872C2.45937 107.422 7.54939 96.198 10.1453 105.792C12.7412 115.386 22.2887 101.946 27.3432 105.792C31.5089 108.962 33.0797 113.105 31.237 117.644C29.2828 122.458 24.3878 123.944 18.582 124.699C12.8662 125.442 8.24601 124.988 4.3045 121.312C0.968515 118.201 -1.21484 114.773 0.735129 110.872Z" fill="#91B26E"/>
<path d="M81.8306 19.6465C79.6618 15.7138 79.1322 11.7365 81.8306 8.14647C84.8216 4.16701 89.5006 6.85224 94.3306 5.64647C100.083 4.2104 102.98 0.185902 108.831 1.14646C112.708 1.7831 118.604 1.7937 117.831 5.64647C117.244 8.56875 113.207 7.33097 111.331 9.64646C109.732 11.6185 108.656 13.1141 108.831 15.6465C109.024 18.4559 112.896 18.8311 112.831 21.6465C112.724 26.2162 106.333 24.8604 101.831 25.6465C97.4064 26.4188 94.589 27.0729 90.3306 25.6465C86.4778 24.356 83.7927 23.2044 81.8306 19.6465Z" fill="#91B26E" stroke="#91B26E"/>
<path d="M177.359 142.006C174.865 140.832 175.364 132.607 182.597 134.37C189.83 136.132 191.439 130.545 195.068 134.37C197.686 137.127 202.801 144.356 198.061 144.356C193.322 144.356 196.49 151.679 193.322 153.755C190.259 155.764 184.094 159.924 184.343 153.755C184.593 147.587 178.421 151.402 177.359 147.587C176.783 145.516 179.853 143.181 177.359 142.006Z" fill="#91B26E"/>
<path d="M163.508 41.5304C165.796 39.5975 167.815 39.4867 170.783 39.1793C175.173 38.7246 178.203 39.0074 181.841 41.5304C185.427 44.0171 188.415 46.5667 187.953 50.9346C187.357 56.5541 181.032 57.802 175.439 57.9877C170.398 58.1551 167.05 56.6182 163.508 52.9917C161.781 51.2242 160.185 50.1788 160.015 47.7019C159.826 44.9326 161.399 43.3113 163.508 41.5304Z" fill="#91B26E"/>
<path d="M16.6052 52.8192C19.1677 49.1239 23.6521 46.4235 23.6521 46.4235C23.6521 46.4235 28.1364 34.6983 33.5817 36.1195C39.0271 37.5407 39.0271 48.5554 39.0271 48.5554C39.0271 48.5554 47.7745 50.8934 47.9958 55.6616C48.2645 61.452 35.5036 60.9913 35.5036 60.9913H23.6521C20.2354 59.8069 14.0427 56.5144 16.6052 52.8192Z" fill="#91B26E"/>
<path d="M32.3361 183.584C31.3801 179.555 32.5072 176.651 35.1643 173.353C40.1058 167.221 51.9301 164.058 56.0225 170.713C58.2219 174.29 56.0225 177.149 56.0225 181.274C56.0225 184.753 57.8081 187.13 56.0225 190.184C52.9624 195.419 45.4447 194.555 39.7602 191.834C35.749 189.914 33.311 187.692 32.3361 183.584Z" fill="#91B26E"/>
</svg>
