<svg width="273" height="282" viewBox="0 0 273 282" fill="none" xmlns="http://www.w3.org/2000/svg">
<path d="M35.2747 36.6553C39.6286 32.1511 42.4234 29.6839 48.0867 26.9826C56.2722 23.0783 62.1928 21.5329 71.0599 23.4653C78.9217 25.1786 81.3636 37.2399 88.7315 34.0173C93.377 31.9855 92.7739 27.1516 96.242 23.4653C101.054 18.3509 105.714 17.7359 110.821 12.9132C115.532 8.46424 111.762 -1.38242 121.424 0.16289L146.165 4.1199C146.165 4.1199 157.743 7.30358 162.069 12.9132C167.18 19.5418 159.633 28.1425 165.603 34.0173C169.454 37.8063 173.63 41.8157 178.415 39.2933C183.904 36.4 175.825 29.0835 178.415 23.4653C180.249 19.4865 181.95 16.9834 185.926 15.1116C195.521 10.5947 196.609 28.045 205.365 34.0173C213.833 39.7938 220.906 39.0162 229.221 45.009C236.633 50.3503 244.547 52.6665 245.568 61.7163C246.577 70.6708 232.704 72.539 233.639 81.5014C234.278 87.6234 236.569 91.5397 241.592 95.1311C245.942 98.2417 249.802 96.8518 254.845 98.6484C262.11 101.236 270.248 100.103 272.517 107.442C275.024 115.55 267.326 121.229 259.705 125.028C252.301 128.72 239.707 119.877 238.499 125.028C237.291 130.18 233.639 136.9 235.406 138.219C237.174 139.538 247.828 133.498 254.845 136.46C263.948 140.302 268.976 148.761 267.216 158.443C264.99 170.684 245.331 162.095 238.499 172.513C235.486 177.107 231.722 180.559 233.639 185.703C236.013 192.071 243.964 188.357 250.427 190.539C255.495 192.25 260.418 190.85 263.239 195.375C266.505 200.614 263.634 205.998 259.705 210.764C254.316 217.3 246.683 213.329 238.499 215.6C230.984 217.685 222.345 214.525 219.502 221.755C217.195 227.622 225.559 230.958 224.362 237.144C222.883 244.777 214.892 244.893 209.783 250.773C204.18 257.222 204.489 263.996 197.412 268.8C187.967 275.212 178.69 276.087 168.254 271.438C161.676 268.507 161.677 260.251 154.559 259.127C145.815 257.746 142.795 266.358 135.561 271.438C129.923 275.397 128.318 282.302 121.424 281.99C114.112 281.659 112.336 274.79 108.17 268.8C105.71 265.262 106.487 261.483 102.869 259.127C96.9776 255.291 92.6295 263.574 85.639 264.403C81.0134 264.952 78.2283 265.533 73.7106 264.403C65.6339 262.382 58.5538 258.976 57.3643 250.773C56.1887 242.666 71.6526 240.889 68.8509 233.187C65.9871 225.314 56.3169 229.209 48.0867 227.471C40.2337 225.813 34.3227 229.001 27.7643 224.393C21.2058 219.786 18.1249 214.356 18.0448 206.367C17.9633 198.227 27.8444 196.041 27.7643 187.901C27.677 179.038 22.1824 174.774 15.8359 168.556C10.6871 163.51 1.3452 165.569 0.37315 158.443C-0.395588 152.808 3.6521 149.949 7.44182 145.693C11.7261 140.881 19.0997 142.561 21.1374 136.46C22.8668 131.282 20.7101 127.599 18.0448 122.83C15.257 117.842 7.44182 112.718 7.44182 112.718C7.44182 112.718 -1.96401 104.334 0.37315 98.6484C1.76199 95.2698 7.44182 92.4931 7.44182 92.4931L23.3463 89.4154L27.7643 87.2171C27.7643 87.2171 33.137 84.4974 35.2747 81.5014C41.575 72.6717 22.2811 67.2177 23.3463 56.4403C24.2326 47.473 28.9978 43.1491 35.2747 36.6553Z" fill="#F8C23D"/>
</svg>
